<?xml version="1.0" encoding="utf-8"?>
<!-- Generator: Adobe Illustrator 24.0.0, SVG Export Plug-In . SVG Version: 6.00 Build 0)  -->
<svg version="1.1" id="Layer_1" xmlns="http://www.w3.org/2000/svg" xmlns:xlink="http://www.w3.org/1999/xlink" x="0px" y="0px"
	 viewBox="0 0 320 89.26" style="enable-background:new 0 0 320 89.26;" xml:space="preserve">
<style type="text/css">
	.st0{fill:#FFFFFF;}
	.st1{font-family:'Rockwell-Regular';}
	.st2{font-size:41.7527px;}
</style>
<path class="st0" d="M270.3,32.05l-38.89,50.2h85.99l-36.67-50.06C278.16,28.69,272.95,28.62,270.3,32.05z"/>
<path class="st0" d="M218.48,42.24l-31,40.02h39.76l8.55-10.58l6.5-8.36l-15.51-20.96C224.75,39.56,220.6,39.5,218.48,42.24z"/>
<path class="st0" d="M219.01,24.58"/>
<path class="st0" d="M247.85,15.84c9.89,0,18.9,3.47,26.18,9.09c2.64-0.58,5.51,0.17,7.27,2.57l12.82,17.5
	c-6.04-19.67-24.17-34.11-45.79-34.11c-26.53,0-48.12,21.59-48.12,48.12c0,0.45,0.12,0.86,0.13,1.31l4.81-6.21
	C207.64,32.64,225.72,15.84,247.85,15.84z"/>
<path class="st0" d="M260.92,38.96l2.77-3.57c-4.42-2.88-9.68-4.6-15.34-4.6c-8,0-15.2,3.38-20.34,8.75l2.73,3.69
	c4.35-4.85,10.6-7.96,17.61-7.96C252.97,35.28,257.26,36.66,260.92,38.96z"/>
<path class="st0" d="M266.82,31.34l2.76-3.56c-6.17-4.31-13.64-6.87-21.72-6.87c-15.84,0-29.44,9.73-35.18,23.52l4.49-5.8
	c1.68-2.17,4.37-2.76,6.77-2.1c6.09-6.6,14.73-10.81,24.4-10.81C255.17,25.72,261.52,27.8,266.82,31.34z"/>
<path class="st0" d="M248.34,44.63c2.47,0,4.77,0.68,6.8,1.79l2.64-3.41c-2.78-1.65-5.98-2.66-9.44-2.66
	c-5.89,0-11.09,2.8-14.51,7.07l2.61,3.53C239.03,47.14,243.4,44.63,248.34,44.63z"/>
<path class="st0" d="M263.68,35.39l3.13-4.04c-5.29-3.55-11.64-5.63-18.48-5.63c-9.67,0-18.31,4.21-24.4,10.81
	c1.33,0.37,2.59,1.01,3.5,2.24l0.57,0.77c5.14-5.37,12.34-8.75,20.34-8.75C254,30.79,259.26,32.5,263.68,35.39z"/>
<path class="st0" d="M248.34,10.9c21.62,0,39.75,14.43,45.79,34.11l6.94,9.47c-2.35-27.18-24.96-48.65-52.73-48.65
	c-29.33,0-53.19,23.86-53.19,53.19c0,2.43,0.4,4.75,0.72,7.1l4.49-5.79c-0.01-0.45-0.13-0.86-0.13-1.31
	C200.22,32.49,221.81,10.9,248.34,10.9z"/>
<path class="st0" d="M248.34,44.63c-4.94,0-9.31,2.51-11.9,6.32l3.31,4.48c1.41-3.36,4.73-5.72,8.59-5.72c1.3,0,2.54,0.28,3.67,0.76
	l3.13-4.05C253.11,45.31,250.81,44.63,248.34,44.63z"/>
<text transform="matrix(1 0 0 1 4.1606 61.6994)" class="st0 st1 st2">Groundz</text>
</svg>
