<?xml version="1.0" encoding="utf-8"?>
<!-- Generator: Adobe Illustrator 24.0.0, SVG Export Plug-In . SVG Version: 6.00 Build 0)  -->
<svg version="1.1" id="Layer_1" xmlns="http://www.w3.org/2000/svg" xmlns:xlink="http://www.w3.org/1999/xlink" x="0px" y="0px"
	 viewBox="0 0 300 200" style="enable-background:new 0 0 300 200;" xml:space="preserve">
<style type="text/css">
	.st0{fill:#D1D3D4;}
	.st1{fill:#E6E7E8;}
	.st2{fill:#BE1E2D;}
	.st3{font-family:'Rockwell-Bold';}
	.st4{font-size:56.5448px;}
	.st5{fill:#1B75BC;}
	.st6{font-size:14.6822px;}
	.st7{fill:#FFFFFF;}
	.st8{fill:#F04D4E;}
	.st9{fill:#0A2545;}
	.st10{font-family:'BudLight-Bold';}
	.st11{font-size:8.6577px;}
	.st12{fill:#A7A9AC;}
	.st13{opacity:0.31;fill:#010101;}
	.st14{opacity:0.08;fill:#0D1419;}
</style>
<ellipse class="st0" cx="149.9" cy="184.04" rx="53.26" ry="7.68"/>
<path class="st0" d="M224.85,111.13L70.9,123.06c-5.32,0.41-9.98-3.57-10.39-8.89l-6.32-81.54c-0.41-5.32,3.57-9.98,8.89-10.39
	l153.95-11.93c5.32-0.41,9.98,3.57,10.39,8.89l6.32,81.54C234.16,106.07,230.17,110.72,224.85,111.13z"/>
<path class="st1" d="M228.39,107.22L74.45,119.15c-5.32,0.41-9.98-3.57-10.39-8.89l-6.32-81.54c-0.41-5.32,3.57-9.98,8.89-10.39
	L220.58,6.39c5.32-0.41,9.98,3.57,10.39,8.89l6.32,81.54C237.7,102.15,233.72,106.8,228.39,107.22z"/>
<text transform="matrix(0.9973 -0.0729 0.0729 0.9973 96.6373 83.6555)" class="st2 st3 st4">404</text>
<text transform="matrix(0.997 -0.0773 0.0773 0.997 120.4975 33.3067)" class="st5 st3 st6">ERROR</text>
<text transform="matrix(0.997 -0.0773 0.0773 0.997 81.7644 105.6853)" class="st5 st3 st6">PAGE NOT FOUND</text>
<g>
	
		<ellipse transform="matrix(0.7071 -0.7071 0.7071 0.7071 -59.1729 149.6517)" class="st7" cx="151.06" cy="146.25" rx="37.17" ry="37.17"/>
	<path class="st8" d="M133.21,107.63c-21.33,9.86-30.64,35.14-20.78,56.47c9.86,21.33,35.14,30.64,56.47,20.78
		c21.33-9.86,30.64-35.14,20.78-56.47C179.83,107.07,154.54,97.77,133.21,107.63z M166.65,179.99
		c-18.63,8.61-40.72,0.48-49.33-18.15s-0.48-40.72,18.15-49.33c18.63-8.61,40.72-0.48,49.33,18.15
		C193.41,149.3,185.28,171.38,166.65,179.99z"/>
	<polygon class="st5" points="145.21,144.1 156.91,148.41 141.05,173.46 	"/>
	<text transform="matrix(0.9078 -0.4194 0.4194 0.9078 136.7593 122.8797)" class="st9 st10 st11">N</text>
	<text transform="matrix(0.9078 -0.4194 0.4194 0.9078 122.6656 163.2395)" class="st9 st10 st11">W</text>
	<text transform="matrix(0.9078 -0.4194 0.4194 0.9078 177.0145 138.1279)" class="st9 st10 st11">E</text>
	<text transform="matrix(0.9078 -0.4194 0.4194 0.9078 162.7297 177.3948)" class="st9 st10 st11">S</text>
	<polygon class="st12" points="152.94,135.98 145.21,144.1 147.99,154.45 156.91,148.41 	"/>
	<path class="st13" d="M134.52,110.46c-19.77,9.13-28.39,32.57-19.26,52.34s32.57,28.39,52.34,19.26
		c19.77-9.13,28.39-32.57,19.26-52.34C177.72,109.94,154.29,101.32,134.52,110.46z M166.65,179.99
		c-18.63,8.61-40.72,0.48-49.33-18.15s-0.48-40.72,18.15-49.33c18.63-8.61,40.72-0.48,49.33,18.15
		C193.41,149.3,185.28,171.38,166.65,179.99z"/>
	<path class="st14" d="M135.47,112.52c-18.63,8.61-26.76,30.69-18.15,49.33c8.61,18.63,30.69,26.76,49.33,18.15
		c18.63-8.61,26.76-30.69,18.15-49.33C176.19,112.03,154.1,103.91,135.47,112.52z M165.58,177.68c-17.35,8.02-37.92,0.45-45.94-16.9
		c-8.02-17.35-0.45-37.92,16.9-45.94c17.35-8.02,37.92-0.45,45.94,16.9C190.5,149.09,182.93,169.66,165.58,177.68z"/>
	<path class="st7" d="M153.26,147.06c-0.45,1.21-1.79,1.84-3.01,1.39c-1.21-0.45-1.84-1.79-1.39-3.01c0.45-1.21,1.79-1.84,3.01-1.39
		C153.08,144.5,153.71,145.85,153.26,147.06z"/>
</g>
<polygon class="st0" points="118.37,132.04 122.75,140.38 120.22,139.76 123.92,137.62 125.47,136.73 126.33,138.22 135.66,154.38 
	133.88,153.82 161.18,142.11 162.04,141.74 162.32,142.61 164.8,150.46 163.8,150.09 167.18,148.14 168.03,147.65 168.1,148.6 
	168.81,157.63 168.35,157.24 177.27,157.04 177.43,157.04 177.51,157.17 180.87,162.99 180.71,162.93 187.76,160.92 180.79,163.2 
	180.69,163.23 180.63,163.14 177.05,157.45 177.29,157.58 168.39,158.11 167.99,158.13 167.94,157.72 166.89,148.72 167.81,149.18 
	164.5,151.26 163.8,151.71 163.5,150.89 160.73,143.14 161.87,143.64 135.04,156.38 133.94,156.9 133.26,155.83 123.32,140.04 
	125.73,140.64 122.12,142.91 120.6,143.87 119.6,142.28 116.17,136.84 "/>
<polygon class="st0" points="170.48,114.93 165.77,116.49 166.31,115.24 167.1,117.34 167.44,118.22 166.59,118.54 157.41,122.01 
	157.84,121.13 161.6,136.3 161.72,136.78 161.25,136.85 156.96,137.47 157.24,136.98 157.96,138.91 158.15,139.39 157.65,139.35 
	152.9,138.94 153.14,138.74 152.48,143.39 152.47,143.47 152.39,143.5 149.09,144.75 149.13,144.67 149.58,148.5 148.99,144.69 
	148.98,144.64 149.03,144.62 152.29,143.24 152.2,143.35 152.68,138.69 152.71,138.47 152.93,138.49 157.69,138.71 157.37,139.15 
	156.57,137.25 156.4,136.85 156.85,136.76 161.11,135.98 160.75,136.53 156.42,121.51 156.24,120.9 156.86,120.64 165.9,116.82 
	165.39,118.02 164.51,115.96 164.14,115.08 165.05,114.7 168.17,113.38 "/>
</svg>
