<?xml version="1.0" encoding="utf-8"?>
<!-- Generator: Adobe Illustrator 24.0.0, SVG Export Plug-In . SVG Version: 6.00 Build 0)  -->
<svg version="1.1" id="Layer_1" xmlns="http://www.w3.org/2000/svg" xmlns:xlink="http://www.w3.org/1999/xlink" x="0px" y="0px"
	 viewBox="0 0 16 16" style="enable-background:new 0 0 16 16;" xml:space="preserve">
<style type="text/css">
	.st0{fill:#FFFFFF;}
</style>
<path class="st0" d="M8.47,5.06l-3.83,4.95h8.48L9.49,5.08C9.24,4.73,8.73,4.72,8.47,5.06z"/>
<path class="st0" d="M3.36,6.07L0.3,10.01h3.92l0.84-1.04l0.64-0.82L4.18,6.08C3.98,5.8,3.57,5.8,3.36,6.07z"/>
<polygon class="st0" points="10.07,5.19 10.52,5.8 15.24,5.8 15.24,5.19 "/>
<polygon class="st0" points="10.79,6.21 11.24,6.82 15.24,6.82 15.24,6.21 "/>
<polygon class="st0" points="11.51,7.23 11.96,7.84 15.24,7.84 15.24,7.23 "/>
<polygon class="st0" points="12.23,8.25 12.67,8.86 15.24,8.86 15.24,8.25 "/>
<polygon class="st0" points="12.95,9.28 13.39,9.88 15.24,9.88 15.24,9.28 "/>
</svg>
